<?xml version="1.0" encoding="iso-8859-1"?>
<!-- Generator: Adobe Illustrator 16.0.0, SVG Export Plug-In . SVG Version: 6.00 Build 0)  -->
<!DOCTYPE svg PUBLIC "-//W3C//DTD SVG 1.1//EN" "http://www.w3.org/Graphics/SVG/1.1/DTD/svg11.dtd">
<svg version="1.1" id="Capa_1" xmlns="http://www.w3.org/2000/svg" xmlns:xlink="http://www.w3.org/1999/xlink" x="0px" y="0px"
	 width="573.285px" height="573.285px" viewBox="0 0 573.285 573.285" style="enable-background:new 0 0 573.285 573.285;"
	 xml:space="preserve">
<g>
	<g>
		<path style="fill:#4cb69f" d="M286.643,573.284c158.055,0,286.643-128.585,286.643-286.64c0-158.055-128.588-286.643-286.643-286.643
			C128.587,0.001,0,128.589,0,286.641C0,444.693,128.584,573.284,286.643,573.284z M286.643,45.901
			c132.746,0,240.742,107.997,240.742,240.743S419.389,527.383,286.643,527.383S45.9,419.39,45.9,286.644
			S153.896,45.901,286.643,45.901z"/>
		<path style="fill:#4cb69f" d="M219.439,416.456V378.93c0-4.835,3.92-8.758,8.754-8.758h236.428c3.061,0,5.542-2.481,5.542-5.541v-159.53
			c0-3.06-2.481-5.542-5.542-5.542H228.193c-4.834,0-8.754-3.919-8.754-8.754v-37.528c0-4.835-2.772-5.985-6.19-2.564
			L85.282,278.676c-3.421,3.421-3.421,8.962,0,12.383l127.963,127.964C216.667,422.441,219.439,421.293,219.439,416.456z"/>
	</g>
</g>
<g>
</g>
<g>
</g>
<g>
</g>
<g>
</g>
<g>
</g>
<g>
</g>
<g>
</g>
<g>
</g>
<g>
</g>
<g>
</g>
<g>
</g>
<g>
</g>
<g>
</g>
<g>
</g>
<g>
</g>
</svg>
