<?xml version="1.0" encoding="iso-8859-1"?>
<!-- Generator: Adobe Illustrator 19.0.0, SVG Export Plug-In . SVG Version: 6.00 Build 0)  -->
<svg version="1.1" id="Layer_1" xmlns="http://www.w3.org/2000/svg" xmlns:xlink="http://www.w3.org/1999/xlink" x="0px" y="0px"
	 viewBox="0 0 251.555 251.555" style="enable-background:new 0 0 251.555 251.555;" xml:space="preserve">
<g>
	<path style="fill:#28D2E4;" d="M211.036,244.055H40.521c-6.939,0-11.43-7.33-8.277-13.512l53.11-104.155h80.85l53.11,104.155
		C222.465,236.724,217.975,244.055,211.036,244.055z"/>
	<g>
		<path style="fill:#22313F;" d="M225.995,227.135l-52.292-102.549V42.742h12.383c4.142,0,7.5-3.358,7.5-7.5V7.5
			c0-4.142-3.358-7.5-7.5-7.5H65.471c-4.142,0-7.5,3.358-7.5,7.5v27.742c0,4.142,3.358,7.5,7.5,7.5h12.383v81.844l-52.291,102.55
			c-5.703,11.183,2.431,24.419,14.959,24.419h170.515C223.589,251.555,231.685,238.296,225.995,227.135z M72.971,27.742V15h105.615
			v12.742c-13.043,0-21.775,0-34.625,0c-4.142,0-7.5,3.358-7.5,7.5s3.358,7.5,7.5,7.5h14.742v76.146h-65.85V35.242
			c0-4.142-3.358-7.5-7.5-7.5H72.971z M211.036,236.555H40.521c-1.346,0-2.208-1.404-1.596-2.605l51.022-100.062h71.661
			L212.63,233.95C213.243,235.149,212.384,236.555,211.036,236.555z"/>
		<path style="fill:#22313F;" d="M109.294,161.221h9.333c4.142,0,7.5-3.358,7.5-7.5s-3.358-7.5-7.5-7.5h-9.333
			c-4.142,0-7.5,3.358-7.5,7.5C101.794,157.863,105.152,161.221,109.294,161.221z"/>
		<path style="fill:#22313F;" d="M140.461,175.555h-31.167c-4.142,0-7.5,3.358-7.5,7.5s3.358,7.5,7.5,7.5h31.167
			c4.142,0,7.5-3.358,7.5-7.5S144.603,175.555,140.461,175.555z"/>
		<path style="fill:#22313F;" d="M130.445,204.888h-9.333c-4.142,0-7.5,3.358-7.5,7.5s3.358,7.5,7.5,7.5h9.333
			c4.142,0,7.5-3.358,7.5-7.5S134.587,204.888,130.445,204.888z"/>
	</g>
</g>
<g>
</g>
<g>
</g>
<g>
</g>
<g>
</g>
<g>
</g>
<g>
</g>
<g>
</g>
<g>
</g>
<g>
</g>
<g>
</g>
<g>
</g>
<g>
</g>
<g>
</g>
<g>
</g>
<g>
</g>
</svg>
