<?xml version="1.0" encoding="iso-8859-1"?>
<!-- Generator: Adobe Illustrator 19.0.0, SVG Export Plug-In . SVG Version: 6.00 Build 0)  -->
<svg version="1.1" id="Layer_1" xmlns="http://www.w3.org/2000/svg" xmlns:xlink="http://www.w3.org/1999/xlink" x="0px" y="0px"
	 viewBox="0 0 218.156 218.156" style="enable-background:new 0 0 218.156 218.156;" xml:space="preserve">
<g>
	<circle style="fill:#A8DE67;" cx="109.078" cy="109.078" r="109.078"/>
	<g>
		<path style="fill:#FFFFFF;" d="M69.4,74.22c-2.268,2.269-2.268,5.945,0,8.216l1.96,1.96c2.27,2.27,5.946,2.269,8.215-0.001l0,0
			c2.27-2.268,2.271-5.945,0-8.215l-1.959-1.96C75.347,71.95,71.669,71.95,69.4,74.22L69.4,74.22z"/>
		<path style="fill:#D14034;" d="M63.438,109.383c-2.443,2.443-6.405,2.444-8.849,0l0,0c-2.443-2.443-2.443-6.405-0.001-8.849
			l27.904-27.903c2.443-2.444,6.405-2.442,8.849,0.001l0,0c2.443,2.442,2.443,6.404,0,8.848L63.438,109.383z"/>
		<path style="fill:#D14034;" d="M54.686,109.479c-2.443-2.442-2.443-6.405,0-8.847l0,0c2.443-2.445,6.405-2.443,8.847,0
			l27.905,27.902c2.443,2.444,2.443,6.405,0,8.85l0,0c-2.443,2.442-6.404,2.442-8.849,0L54.686,109.479z"/>
		<path style="fill:#FF5243;" d="M63.543,121.676l48.644-48.644c11.49-11.489,30.118-11.49,41.608-0.001l0,0
			c11.489,11.489,11.489,30.118,0,41.608l-48.645,48.643L63.543,121.676z"/>
		<path style="fill:#D14034;" d="M178.089,109.484c-7.859,7.86-20.604,7.86-28.464,0l-32.284-32.283
			c-7.86-7.86-7.86-20.605,0-28.464l0,0c7.86-7.862,20.605-7.862,28.465-0.001L178.09,81.02
			C185.951,88.88,185.951,101.624,178.089,109.484L178.089,109.484z"/>
		<polygon style="fill:#D14034;" points="74.716,178.024 48.801,152.108 63.543,121.676 105.15,163.282 		"/>
	</g>
</g>
<g>
</g>
<g>
</g>
<g>
</g>
<g>
</g>
<g>
</g>
<g>
</g>
<g>
</g>
<g>
</g>
<g>
</g>
<g>
</g>
<g>
</g>
<g>
</g>
<g>
</g>
<g>
</g>
<g>
</g>
</svg>
