<?xml version="1.0" encoding="iso-8859-1"?>
<!-- Generator: Adobe Illustrator 19.0.0, SVG Export Plug-In . SVG Version: 6.00 Build 0)  -->
<svg version="1.1" id="Layer_1" xmlns="http://www.w3.org/2000/svg" xmlns:xlink="http://www.w3.org/1999/xlink" x="0px" y="0px"
	 viewBox="0 0 349 349" style="enable-background:new 0 0 349 349;" xml:space="preserve">
<g>
	<polygon style="fill:#FFDB77;" points="236.5,301.407 112.5,301.407 112.5,112.592 174.5,47.592 236.5,112.592 	"/>
	<circle style="fill:#28D2E4;" cx="174.5" cy="133.925" r="18"/>
	<rect x="149.167" y="227.258" style="fill:#13829B;" width="50.667" height="74.149"/>
	<rect x="236.5" y="159.65" style="fill:#28D2E4;" width="105" height="141.757"/>
	<rect x="236.5" y="112.592" style="fill:#13829B;" width="105" height="47.059"/>
	<rect x="7.5" y="159.65" style="fill:#28D2E4;" width="105" height="141.757"/>
	<rect x="7.5" y="112.592" style="fill:#13829B;" width="105" height="47.059"/>
	<g>
		<path style="fill:#22313F;" d="M174.5,159.425c14.061,0,25.5-11.439,25.5-25.5c0-14.061-11.439-25.5-25.5-25.5
			s-25.5,11.439-25.5,25.5S160.439,159.425,174.5,159.425z M174.5,123.425c5.79,0,10.5,4.71,10.5,10.5c0,5.789-4.71,10.5-10.5,10.5
			s-10.5-4.711-10.5-10.5S168.71,123.425,174.5,123.425z"/>
		<path style="fill:#22313F;" d="M341.5,105.092H239.711l-59.784-62.677c-2.955-3.097-7.901-3.095-10.854,0l-59.784,62.677H7.5
			c-4.143,0-7.5,3.358-7.5,7.5c0,9.557,0,179.56,0,188.815c0,4.142,3.357,7.5,7.5,7.5c9.094,0,324.893,0,334,0
			c4.143,0,7.5-3.358,7.5-7.5c0-9.308,0-179.341,0-188.815C349,108.45,345.643,105.092,341.5,105.092z M334,152.15h-90v-32.059h90
			V152.15z M15,120.092h90v32.059H15V120.092z M15,167.15h90v126.757H15V167.15z M120,115.595l54.5-57.137l54.5,57.137
			c0,2.924,0,175.345,0,178.312h-21.667v-66.649c0-4.142-3.357-7.5-7.5-7.5h-50.666c-4.143,0-7.5,3.358-7.5,7.5v66.649H120
			C120,290.94,120,118.519,120,115.595z M156.667,293.907v-59.149h35.666v59.149H156.667z M334,293.907h-90V167.15h90V293.907z"/>
		<path style="fill:#22313F;" d="M267,220.483h44c4.143,0,7.5-3.358,7.5-7.5s-3.357-7.5-7.5-7.5h-44c-4.143,0-7.5,3.358-7.5,7.5
			S262.857,220.483,267,220.483z"/>
		<path style="fill:#22313F;" d="M267,255.575h44c4.143,0,7.5-3.358,7.5-7.5s-3.357-7.5-7.5-7.5h-44c-4.143,0-7.5,3.358-7.5,7.5
			S262.857,255.575,267,255.575z"/>
		<path style="fill:#22313F;" d="M82,205.483H38c-4.143,0-7.5,3.358-7.5,7.5s3.357,7.5,7.5,7.5h44c4.143,0,7.5-3.358,7.5-7.5
			S86.143,205.483,82,205.483z"/>
		<path style="fill:#22313F;" d="M82,240.575H38c-4.143,0-7.5,3.358-7.5,7.5s3.357,7.5,7.5,7.5h44c4.143,0,7.5-3.358,7.5-7.5
			S86.143,240.575,82,240.575z"/>
	</g>
</g>
<g>
</g>
<g>
</g>
<g>
</g>
<g>
</g>
<g>
</g>
<g>
</g>
<g>
</g>
<g>
</g>
<g>
</g>
<g>
</g>
<g>
</g>
<g>
</g>
<g>
</g>
<g>
</g>
<g>
</g>
</svg>
